<svg xmlns="http://www.w3.org/2000/svg" viewBox="0 0 750.41 122.77"><defs><style>.cls-1{fill:#c6b3a3;}.cls-2{fill:none;stroke:#000;}</style></defs><g id="レイヤー_2" data-name="レイヤー 2"><g id="レイヤー_1-2" data-name="レイヤー 1"><path class="cls-1" d="M41.33,107.43H39a24.43,24.43,0,0,1-19.75-9.87v19.23c0,3.25-3.25,6-8,6S3,120,3,116.79V36.36c0-3.12,3.12-5.59,7.67-5.59s7.66,2.47,7.66,5.59v6.23A24.32,24.32,0,0,1,39.38,31.42H41.2c18.2,0,30,14.16,30,36.9V71.7C71.22,94.31,58.49,107.43,41.33,107.43Zm13.39-39c0-14.29-6.11-21.83-16.12-21.83H36.66c-11.7,0-17.81,8.32-17.81,21.7v2.73c0,14.68,8.19,21.18,17.55,21.18h2.2c8.58,0,16.12-6.63,16.12-20.4Z"/><path class="cls-1" d="M141.26,110c-6.89,0-7.28-5.84-7.67-11.3A31,31,0,0,1,111.11,108h-5.72c-17.8,0-26.64-9.62-26.64-21.06V84.17c0-15.07,10.92-22.61,29.24-22.61,19,0,22.87-.91,25.08-5.84v-1.3c0-5.2-3.25-9.88-15.2-9.88H110.2c-17.8,0-9.36,11.18-21.83,11.18-4.16,0-7.15-2.21-7.15-4.94,0-.26.13-.52.13-.78,2.73-11,12.35-18.58,28.72-18.58h8.58c20.53,0,30.27,8.44,30.27,23.26v42c0,2.73,2.08,4.94,2.08,7.28C151,108.34,144.77,110,141.26,110Zm-8.19-43.27c-3.64,4.29-11.95,5.59-24.17,5.59-11.43,0-14.29,3.9-14.29,10V84.3c0,6.63,6.62,9.75,14.29,9.75h4.94c9.48,0,16.89-4.29,19.23-9.88Z"/><path class="cls-1" d="M204.41,48.31h-4.94c-12.35,0-20.53,7.28-22.61,16.5v37.82c0,3.25-3.25,6-8.06,6s-8.05-2.72-8.05-6V36.36c0-3.12,3-5.59,7.66-5.59S176,33.24,176,36.36V47.14c3.9-8.45,12.34-15.2,24.43-15.2h4c3.38,0,6.1,3.25,6.1,8.18S207.79,48.31,204.41,48.31Z"/><path class="cls-1" d="M261.71,44.8h-17V80.67c0,10.39,1.95,13.12,10.39,13.12h2.34c2.73,0,4.94,2.73,4.94,6.76s-2.21,6.88-4.94,6.88h-6.49c-16.51,0-22.1-8.18-22.1-26.11V44.8H218.18c-2.6,0-4.81-2.6-4.81-6.5s2.21-6.36,4.81-6.36h10.65V16.86c0-3.11,3.12-5.84,7.93-5.84s7.93,2.73,7.93,5.84V31.94h17c2.6,0,4.81,2.6,4.81,6.36S264.31,44.8,261.71,44.8Z"/><path class="cls-1" d="M312,108.86h-6.24c-17.15,0-27.42-8.44-29.5-20.92v-.65c0-3.12,3.25-5.45,7.93-5.45,12.86,0,3.9,13.77,22.61,13.77h4.55c12.08,0,15.2-6,15.2-9.36v-.78c0-6.88-3.12-10.13-15.46-10.13h-4.55c-18.32,0-29.37-8.71-29.37-20.92v-1.3c0-11.83,9.36-22.35,29.63-22.35h5.59c15.85,0,26,7.66,28.19,19a2.21,2.21,0,0,1,.13.91c0,2.86-3.38,5.2-7.92,5.2-11.83,0-5.33-11.57-21.31-11.57h-3c-12.09,0-15.08,3.64-15.08,9v.91c0,5.2,3.9,7.66,13.39,7.66h5.59c20.53,0,30.66,9.23,30.66,22.61V86C343.05,98.47,331,108.86,312,108.86Z"/><path class="cls-1" d="M431.41,108.86h-6.24c-17.15,0-27.42-8.44-29.49-20.92v-.65c0-3.12,3.24-5.45,7.92-5.45,12.87,0,3.9,13.77,22.61,13.77h4.55c12.09,0,15.2-6,15.2-9.36v-.78c0-6.88-3.11-10.13-15.46-10.13H426c-18.32,0-29.36-8.71-29.36-20.92v-1.3c0-11.83,9.35-22.35,29.62-22.35h5.59c15.85,0,26,7.66,28.2,19a2.21,2.21,0,0,1,.13.91c0,2.86-3.38,5.2-7.93,5.2-11.82,0-5.33-11.57-21.31-11.57h-3c-12.08,0-15.07,3.64-15.07,9v.91c0,5.2,3.9,7.66,13.38,7.66h5.59c20.53,0,30.67,9.23,30.67,22.61V86C462.47,98.47,450.38,108.86,431.41,108.86Z"/><path class="cls-1" d="M517,44.8H500V80.67c0,10.39,2,13.12,10.4,13.12h2.33c2.73,0,4.94,2.73,4.94,6.76s-2.21,6.88-4.94,6.88h-6.49c-16.51,0-22.09-8.18-22.09-26.11V44.8H473.51c-2.6,0-4.81-2.6-4.81-6.5s2.21-6.36,4.81-6.36h10.66V16.86c0-3.11,3.12-5.84,7.92-5.84S500,13.75,500,16.86V31.94h17c2.6,0,4.81,2.6,4.81,6.36S519.64,44.8,517,44.8Z"/><path class="cls-1" d="M565.51,109.12h-1.43c-19.62,0-33.66-12.73-33.66-37.55v-3c0-23.39,13.26-37.81,33.66-37.81h1.43c19.36,0,33.65,13.12,33.65,37.81v3C599.16,96.91,584.74,109.12,565.51,109.12Zm17.54-40.28c0-17.41-7.8-23.65-17.67-23.65h-1.17c-10.53,0-17.54,6.37-17.54,23.65v2.6c0,15.59,7.79,22.48,17.54,22.48h1.17c9.22,0,17.67-6.37,17.67-22.48Z"/><path class="cls-1" d="M642.43,108.21h-1.82c-19.23,0-33.65-11-33.65-36.64V67.8c0-23,13-36.9,33.39-36.9h2.47c18.07,0,30.54,9.87,32.75,24.3v.65c0,3.12-3.38,5.45-7.93,5.45-14,0-4.93-15.85-25.08-15.85h-1.95c-10.13,0-17.41,6.11-17.41,23v2.6c0,16.24,7.54,22.61,17.67,22.61h1.69c19.75,0,11.05-16,25.08-16,4.55,0,7.93,2.34,7.93,5.45v.66C673.36,97.43,661.92,108.21,642.43,108.21Z"/><path class="cls-1" d="M741.58,109a5.09,5.09,0,0,1-4.42-2.34L715.72,70,702.46,84.3v18.46c0,3.25-3.12,5.84-7.66,5.84S687,106,687,102.76V9.85C687,6.6,690.12,4,694.8,4s7.66,2.6,7.66,5.85V64.68l28.59-30.92a4.81,4.81,0,0,1,3.77-1.56c3.51,0,8.19,2.73,8.19,6.62a4.2,4.2,0,0,1-1,2.73L725.85,59,749.76,98.6a5.3,5.3,0,0,1,.65,2.34C750.41,105.1,745.47,109,741.58,109Z"/><path class="cls-2" d="M38.83,103.93H36.49a24.43,24.43,0,0,1-19.75-9.87v19.23c0,3.25-3.25,6-8,6s-8.19-2.73-8.19-6V32.86c0-3.12,3.12-5.59,7.67-5.59s7.66,2.47,7.66,5.59v6.23A24.32,24.32,0,0,1,36.88,27.92H38.7c18.2,0,30,14.16,30,36.9V68.2C68.72,90.81,56,103.93,38.83,103.93ZM52.22,65c0-14.29-6.11-21.83-16.12-21.83H34.16c-11.7,0-17.81,8.32-17.81,21.7v2.73c0,14.68,8.19,21.18,17.55,21.18h2.2c8.58,0,16.12-6.63,16.12-20.4Z"/><path class="cls-2" d="M138.76,106.53c-6.89,0-7.28-5.84-7.67-11.3a31,31,0,0,1-22.48,9.23h-5.72c-17.8,0-26.64-9.62-26.64-21.06V80.67c0-15.07,10.92-22.61,29.24-22.61,19,0,22.87-.91,25.08-5.84v-1.3c0-5.2-3.25-9.88-15.2-9.88H107.7c-17.8,0-9.36,11.18-21.83,11.18-4.16,0-7.15-2.21-7.15-4.94,0-.26.13-.52.13-.78,2.73-11,12.35-18.58,28.72-18.58h8.58c20.53,0,30.27,8.44,30.27,23.26v42c0,2.73,2.08,4.94,2.08,7.28C148.5,104.84,142.27,106.53,138.76,106.53Zm-8.19-43.27c-3.64,4.29-11.95,5.59-24.17,5.59-11.43,0-14.29,3.9-14.29,10V80.8c0,6.63,6.62,9.75,14.29,9.75h4.94c9.48,0,16.89-4.29,19.23-9.88Z"/><path class="cls-2" d="M201.91,44.81H197c-12.35,0-20.53,7.28-22.61,16.5V99.13c0,3.25-3.25,6-8.06,6s-8.05-2.72-8.05-6V32.86c0-3.12,3-5.59,7.66-5.59s7.54,2.47,7.54,5.59V43.64c3.9-8.45,12.34-15.2,24.43-15.2h4c3.38,0,6.1,3.25,6.1,8.18S205.29,44.81,201.91,44.81Z"/><path class="cls-2" d="M259.21,41.3h-17V77.17c0,10.39,1.95,13.12,10.39,13.12h2.34c2.73,0,4.94,2.73,4.94,6.76s-2.21,6.88-4.94,6.88h-6.49c-16.51,0-22.1-8.18-22.1-26.11V41.3H215.68c-2.6,0-4.81-2.6-4.81-6.5s2.21-6.36,4.81-6.36h10.65V13.36c0-3.11,3.12-5.84,7.93-5.84s7.93,2.73,7.93,5.84V28.44h17c2.6,0,4.81,2.6,4.81,6.36S261.81,41.3,259.21,41.3Z"/><path class="cls-2" d="M309.5,105.36h-6.24c-17.15,0-27.42-8.44-29.5-20.92v-.65c0-3.12,3.25-5.45,7.93-5.45,12.86,0,3.9,13.77,22.61,13.77h4.55c12.08,0,15.2-6,15.2-9.36V82c0-6.88-3.12-10.13-15.46-10.13H304c-18.32,0-29.37-8.71-29.37-20.92v-1.3c0-11.83,9.36-22.35,29.63-22.35h5.59c15.85,0,26,7.66,28.19,19a2.21,2.21,0,0,1,.13.91c0,2.86-3.38,5.2-7.92,5.2-11.83,0-5.33-11.57-21.31-11.57h-3c-12.09,0-15.08,3.64-15.08,9v.91c0,5.2,3.9,7.66,13.39,7.66h5.59c20.53,0,30.66,9.23,30.66,22.61v1.56C340.55,95,328.47,105.36,309.5,105.36Z"/><path class="cls-2" d="M428.91,105.36h-6.24c-17.15,0-27.42-8.44-29.49-20.92v-.65c0-3.12,3.24-5.45,7.92-5.45,12.87,0,3.9,13.77,22.61,13.77h4.55c12.09,0,15.2-6,15.2-9.36V82c0-6.88-3.11-10.13-15.46-10.13h-4.55c-18.32,0-29.36-8.71-29.36-20.92v-1.3c0-11.83,9.35-22.35,29.62-22.35h5.59c15.85,0,26,7.66,28.2,19a2.21,2.21,0,0,1,.13.91c0,2.86-3.38,5.2-7.93,5.2-11.82,0-5.33-11.57-21.31-11.57h-3c-12.08,0-15.07,3.64-15.07,9v.91c0,5.2,3.9,7.66,13.38,7.66h5.59c20.53,0,30.67,9.23,30.67,22.61v1.56C460,95,447.88,105.36,428.91,105.36Z"/><path class="cls-2" d="M514.54,41.3h-17V77.17c0,10.39,2,13.12,10.4,13.12h2.33c2.73,0,4.94,2.73,4.94,6.76s-2.21,6.88-4.94,6.88h-6.49c-16.51,0-22.09-8.18-22.09-26.11V41.3H471c-2.6,0-4.81-2.6-4.81-6.5s2.21-6.36,4.81-6.36h10.66V13.36c0-3.11,3.12-5.84,7.92-5.84s7.93,2.73,7.93,5.84V28.44h17c2.6,0,4.81,2.6,4.81,6.36S517.14,41.3,514.54,41.3Z"/><path class="cls-2" d="M563,105.62h-1.43c-19.62,0-33.66-12.73-33.66-37.55v-3c0-23.39,13.26-37.81,33.66-37.81H563c19.36,0,33.65,13.12,33.65,37.81v3C596.66,93.41,582.24,105.62,563,105.62Zm17.54-40.28c0-17.41-7.8-23.65-17.67-23.65h-1.17c-10.53,0-17.54,6.37-17.54,23.65v2.6c0,15.59,7.79,22.48,17.54,22.48h1.17c9.22,0,17.67-6.37,17.67-22.48Z"/><path class="cls-2" d="M639.93,104.71h-1.82c-19.23,0-33.65-11-33.65-36.64V64.3c0-23,13-36.9,33.39-36.9h2.47c18.07,0,30.54,9.87,32.75,24.3v.65c0,3.12-3.38,5.45-7.93,5.45-14,0-4.93-15.85-25.08-15.85h-1.95C628,42,620.7,48.06,620.7,65v2.6c0,16.24,7.54,22.61,17.67,22.61h1.69c19.75,0,11.05-16,25.08-16,4.55,0,7.93,2.34,7.93,5.45v.66C670.86,93.93,659.42,104.71,639.93,104.71Z"/><path class="cls-2" d="M739.08,105.49a5.09,5.09,0,0,1-4.42-2.34L713.22,66.51,700,80.8V99.26c0,3.25-3.12,5.84-7.66,5.84s-7.8-2.59-7.8-5.84V6.35c0-3.25,3.12-5.85,7.8-5.85S700,3.1,700,6.35V61.18l28.59-30.92a4.81,4.81,0,0,1,3.77-1.56c3.51,0,8.19,2.73,8.19,6.62a4.2,4.2,0,0,1-1,2.73L723.35,55.47,747.26,95.1a5.3,5.3,0,0,1,.65,2.34C747.91,101.6,743,105.49,739.08,105.49Z"/></g></g></svg>